<svg id="Grupo_740" data-name="Grupo 740" xmlns="http://www.w3.org/2000/svg" width="45.22" height="45.219" viewBox="0 0 45.22 45.219">
  <path id="Trazado_1057" data-name="Trazado 1057" d="M1524.61,3437c-6.141,0-6.91.026-9.322.136a16.6,16.6,0,0,0-5.488,1.051,11.562,11.562,0,0,0-6.612,6.613,16.59,16.59,0,0,0-1.051,5.488c-.11,2.412-.136,3.182-.136,9.322s.026,6.91.136,9.322a16.59,16.59,0,0,0,1.051,5.488,11.559,11.559,0,0,0,6.612,6.612,16.588,16.588,0,0,0,5.488,1.051c2.412.11,3.182.136,9.322.136s6.91-.026,9.322-.136a16.585,16.585,0,0,0,5.488-1.051,11.559,11.559,0,0,0,6.613-6.612,16.6,16.6,0,0,0,1.051-5.488c.11-2.412.136-3.182.136-9.322s-.026-6.91-.136-9.322a16.6,16.6,0,0,0-1.051-5.488,11.562,11.562,0,0,0-6.613-6.613,16.6,16.6,0,0,0-5.488-1.051c-2.411-.11-3.181-.136-9.322-.136Zm0,4.074c6.037,0,6.752.023,9.136.132a12.5,12.5,0,0,1,4.2.779,7.487,7.487,0,0,1,4.291,4.291,12.512,12.512,0,0,1,.778,4.2c.109,2.384.132,3.1.132,9.136s-.023,6.752-.132,9.136a12.507,12.507,0,0,1-.778,4.2,7.486,7.486,0,0,1-4.291,4.291,12.5,12.5,0,0,1-4.2.779c-2.384.109-3.1.132-9.136.132s-6.752-.023-9.136-.132a12.506,12.506,0,0,1-4.2-.779,7.486,7.486,0,0,1-4.291-4.291,12.509,12.509,0,0,1-.779-4.2c-.109-2.384-.132-3.1-.132-9.136s.023-6.752.132-9.136a12.514,12.514,0,0,1,.779-4.2,7.485,7.485,0,0,1,4.291-4.291,12.5,12.5,0,0,1,4.2-.779c2.384-.109,3.1-.132,9.136-.132" transform="translate(-1502 -3437)" fill="#f38027"/>
  <path id="Trazado_1058" data-name="Trazado 1058" d="M1636.167,3578.7a7.537,7.537,0,1,1,7.536-7.537,7.537,7.537,0,0,1-7.536,7.537Zm0-19.147a11.61,11.61,0,1,0,11.61,11.61,11.61,11.61,0,0,0-11.61-11.61Z" transform="translate(-1613.557 -3548.556)" fill="#f38027"/>
  <path id="Trazado_1059" data-name="Trazado 1059" d="M1863.592,3526.927a2.713,2.713,0,1,1-2.713-2.713,2.713,2.713,0,0,1,2.713,2.713Z" transform="translate(-1826.2 -3516.386)" fill="#f38027"/>
</svg>
