<svg xmlns="http://www.w3.org/2000/svg" width="336.991" height="54.452" viewBox="0 0 336.991 54.452">
  <g id="Grupo_736" data-name="Grupo 736" transform="translate(-431.631 -3170.927)">
    <g id="Grupo_733" data-name="Grupo 733" transform="translate(431.631 3187.508)">
      <g id="Grupo_732" data-name="Grupo 732">
        <g id="Grupo_722" data-name="Grupo 722" transform="translate(0 2.254)">
          <path id="Trazado_1033" data-name="Trazado 1033" d="M447.655,3185.782l-3.1,1.84a5.34,5.34,0,0,0-1.659-1.972,3.873,3.873,0,0,0-2.12-.525,3.916,3.916,0,0,0-2.645.9,2.8,2.8,0,0,0-1.05,2.236q0,1.856,2.759,2.991l2.53,1.037a10.814,10.814,0,0,1,4.517,3.048,6.884,6.884,0,0,1,1.429,4.415,7.766,7.766,0,0,1-2.333,5.788,8.006,8.006,0,0,1-5.83,2.3,7.78,7.78,0,0,1-5.455-1.963,9.033,9.033,0,0,1-2.645-5.51l3.877-.854a6.567,6.567,0,0,0,.921,3.088,4.37,4.37,0,0,0,6.422.444,4.141,4.141,0,0,0,1.182-3.037,4.278,4.278,0,0,0-.2-1.354,3.463,3.463,0,0,0-.641-1.135,5.172,5.172,0,0,0-1.125-.968,11.13,11.13,0,0,0-1.643-.86l-2.447-1.018q-5.207-2.2-5.208-6.435a6.1,6.1,0,0,1,2.186-4.775,7.886,7.886,0,0,1,5.438-1.939Q445.191,3181.527,447.655,3185.782Z" transform="translate(-431.278 -3180.842)" fill="#fff"/>
          <path id="Trazado_1034" data-name="Trazado 1034" d="M440.5,3208.841a8.476,8.476,0,0,1-5.917-2.142,9.739,9.739,0,0,1-2.86-5.917l-.094-.632L436.87,3199l.088.751a5.8,5.8,0,0,0,.783,2.75,3.686,3.686,0,0,0,5.392.383,3.456,3.456,0,0,0,.985-2.556,3.566,3.566,0,0,0-.169-1.138,2.754,2.754,0,0,0-.516-.908,4.45,4.45,0,0,0-.976-.836,10.2,10.2,0,0,0-1.54-.807l-2.438-1.013c-3.737-1.578-5.63-3.956-5.63-7.068a6.785,6.785,0,0,1,2.418-5.291,8.593,8.593,0,0,1,5.891-2.108c3.171,0,5.674,1.547,7.442,4.6l.339.585-4.283,2.54-.346-.6a4.6,4.6,0,0,0-1.412-1.724,3.738,3.738,0,0,0-3.972.307,2.141,2.141,0,0,0-.81,1.717c0,.344,0,1.4,2.333,2.357l2.53,1.035a11.513,11.513,0,0,1,4.794,3.258,7.582,7.582,0,0,1,1.578,4.84,8.455,8.455,0,0,1-2.538,6.276A8.7,8.7,0,0,1,440.5,3208.841Zm-7.313-7.63a8.08,8.08,0,0,0,2.324,4.479,7.056,7.056,0,0,0,4.989,1.781,7.284,7.284,0,0,0,5.352-2.1,7.042,7.042,0,0,0,2.127-5.3,6.158,6.158,0,0,0-1.282-3.987,10.214,10.214,0,0,0-4.237-2.841l-2.532-1.035c-2.114-.869-3.184-2.09-3.184-3.626a3.478,3.478,0,0,1,1.291-2.759,5.094,5.094,0,0,1,5.576-.435,4.981,4.981,0,0,1,1.523,1.617l1.923-1.14a6.719,6.719,0,0,0-5.9-3.337,7.165,7.165,0,0,0-4.983,1.766,5.4,5.4,0,0,0-1.956,4.264c0,2.545,1.567,4.443,4.79,5.8l2.444,1.015a11.7,11.7,0,0,1,1.753.921,5.87,5.87,0,0,1,1.274,1.1,4.187,4.187,0,0,1,.768,1.357,5.027,5.027,0,0,1,.239,1.573,4.829,4.829,0,0,1-1.379,3.519,5.054,5.054,0,0,1-7.466-.527,6.011,6.011,0,0,1-.941-2.661Z" transform="translate(-431.631 -3181.155)" fill="#fff"/>
        </g>
        <g id="Grupo_723" data-name="Grupo 723" transform="translate(30.384 2.748)">
          <path id="Trazado_1035" data-name="Trazado 1035" d="M452.331,3191.718H463.27v-9.923H467.1v25.364H463.27v-11.845H452.331v11.845H448.5v-25.364h3.829Z" transform="translate(-447.817 -3181.11)" fill="#fff"/>
          <path id="Trazado_1036" data-name="Trazado 1036" d="M468.1,3208.157h-5.2v-11.845h-9.569v11.845h-5.2v-26.734h5.2v9.922H462.9v-9.922h5.2Zm-3.829-1.37h2.458v-23.994h-2.458v9.922H451.959v-9.922H449.5v23.994h2.458v-11.845h12.309Z" transform="translate(-448.13 -3181.423)" fill="#fff"/>
        </g>
        <g id="Grupo_724" data-name="Grupo 724" transform="translate(61.181 0.192)">
          <path id="Trazado_1037" data-name="Trazado 1037" d="M483.244,3201.726h-10.86l-2.825,6.162h-4.123l12.55-26.959,12.107,26.959h-4.188Zm-1.562-3.6-3.76-8.625-3.943,8.625Z" transform="translate(-464.362 -3179.282)" fill="#fff"/>
          <path id="Trazado_1038" data-name="Trazado 1038" d="M491.642,3209.325h-5.7l-2.661-6.162h-9.97l-2.825,6.162h-5.637l13.637-29.291Zm-4.8-1.37h2.68l-11.061-24.625L467,3207.955h2.61l2.825-6.162h11.747Zm-3.628-8.388H473.4l5.026-10.989Zm-7.683-1.371h5.591l-2.729-6.259Z" transform="translate(-464.853 -3180.035)" fill="#fff"/>
        </g>
        <g id="Grupo_725" data-name="Grupo 725" transform="translate(98.817 2.748)">
          <path id="Trazado_1039" data-name="Trazado 1039" d="M489.491,3191.915l9.873-10.12h5.109l-11.466,11.482,11.532,13.882h-5.127l-9.132-11.285-.788.788v10.5h-3.829v-25.364h3.829Z" transform="translate(-484.977 -3181.11)" fill="#fff"/>
          <path id="Trazado_1040" data-name="Trazado 1040" d="M506.311,3208.157H499.4l-8.86-10.948-.05.049v10.9h-5.2v-26.734h5.2v9.121l8.9-9.121h7.051l-12.195,12.209Zm-6.259-1.37h3.339l-11-13.239,10.74-10.755h-3.169l-10.845,11.118v-11.118H486.66v23.994h2.458v-10.1l1.527-1.527Z" transform="translate(-485.29 -3181.423)" fill="#fff"/>
        </g>
        <g id="Grupo_726" data-name="Grupo 726" transform="translate(130.529 2.748)">
          <path id="Trazado_1041" data-name="Trazado 1041" d="M516.878,3185.394H506.709v6.094h9.873v3.6h-9.873v8.477h10.169v3.6h-14v-25.364h14Z" transform="translate(-502.197 -3181.11)" fill="#fff"/>
          <path id="Trazado_1042" data-name="Trazado 1042" d="M517.876,3208.157H502.51v-26.734h15.366v4.969H507.707v4.723h9.873v4.967h-9.873v7.106h10.169Zm-14-1.37h12.626v-2.228H506.337v-9.847h9.873v-2.227h-9.873v-7.464h10.169v-2.228H503.88Z" transform="translate(-502.51 -3181.423)" fill="#fff"/>
        </g>
        <g id="Grupo_727" data-name="Grupo 727" transform="translate(198.575 2.748)">
          <path id="Trazado_1043" data-name="Trazado 1043" d="M543.661,3196.857v10.3h-3.829v-25.364h4.337a19.54,19.54,0,0,1,4.814.444,6.469,6.469,0,0,1,2.889,1.676,7.217,7.217,0,0,1,2.186,5.388,6.951,6.951,0,0,1-2.333,5.519,9.229,9.229,0,0,1-6.291,2.035Zm0-3.547h1.427q5.273,0,5.274-4.057,0-3.925-5.438-3.926h-1.263Z" transform="translate(-539.147 -3181.11)" fill="#fff"/>
          <path id="Trazado_1044" data-name="Trazado 1044" d="M544.659,3208.157h-5.2v-26.734h5.022a20.026,20.026,0,0,1,4.994.468,7.176,7.176,0,0,1,3.191,1.849,7.907,7.907,0,0,1,2.389,5.876,7.64,7.64,0,0,1-2.567,6.035,9.925,9.925,0,0,1-6.742,2.2h-1.088Zm-3.829-1.37h2.458v-10.3h2.459a8.617,8.617,0,0,0,5.839-1.865,6.249,6.249,0,0,0,2.1-5,6.5,6.5,0,0,0-1.98-4.9,5.8,5.8,0,0,0-2.591-1.5,18.962,18.962,0,0,0-4.633-.42H540.83Zm4.571-12.479h-2.112v-9.353h1.948c5.061,0,6.123,2.508,6.123,4.611C551.36,3191.73,550.325,3194.309,545.4,3194.309Zm-.742-1.37h.742c4.114,0,4.589-1.924,4.589-3.372,0-1.392-.494-3.241-4.753-3.241h-.578Z" transform="translate(-539.46 -3181.423)" fill="#fff"/>
        </g>
        <g id="Grupo_728" data-name="Grupo 728" transform="translate(224.898 2.271)">
          <path id="Trazado_1045" data-name="Trazado 1045" d="M554.126,3194.58a12.42,12.42,0,0,1,3.926-9.2,12.918,12.918,0,0,1,9.4-3.846,13.268,13.268,0,0,1,13.189,13.191,12.477,12.477,0,0,1-3.91,9.282,13.4,13.4,0,0,1-18.3.427A12.46,12.46,0,0,1,554.126,3194.58Zm3.86.041a9.4,9.4,0,0,0,16.049,6.859,9.826,9.826,0,0,0,.033-13.588,9.464,9.464,0,0,0-13.355,0A9.139,9.139,0,0,0,557.986,3194.621Z" transform="translate(-553.441 -3180.851)" fill="#fff"/>
          <path id="Trazado_1046" data-name="Trazado 1046" d="M567.564,3208.834a13.8,13.8,0,0,1-9.27-3.569,13.777,13.777,0,0,1-.407-20.061,13.64,13.64,0,0,1,9.876-4.04,13.952,13.952,0,0,1,13.874,13.876,13.183,13.183,0,0,1-4.118,9.771A13.794,13.794,0,0,1,567.564,3208.834Zm.2-26.3a12.314,12.314,0,0,0-8.917,3.648,12.406,12.406,0,0,0,.348,18.049,12.717,12.717,0,0,0,17.371-.4,11.86,11.86,0,0,0,3.7-8.79,12.579,12.579,0,0,0-12.5-12.506Zm-.149,22.7a10.238,10.238,0,0,1,.1-20.475,9.654,9.654,0,0,1,7.158,2.963,10.514,10.514,0,0,1-.033,14.548A9.841,9.841,0,0,1,567.614,3205.238Zm.1-19.1a8.309,8.309,0,0,0-6.2,2.554,8.83,8.83,0,1,0,12.349,12.624,9.142,9.142,0,0,0,.03-12.624A8.215,8.215,0,0,0,567.713,3186.133Z" transform="translate(-553.754 -3181.164)" fill="#fff"/>
        </g>
        <g id="Grupo_729" data-name="Grupo 729" transform="translate(265.643 2.748)">
          <path id="Trazado_1047" data-name="Trazado 1047" d="M580.079,3181.795v25.364h-3.827v-25.364Z" transform="translate(-575.565 -3181.11)" fill="#fff"/>
          <path id="Trazado_1048" data-name="Trazado 1048" d="M581.078,3208.157h-5.2v-26.734h5.2Zm-3.829-1.37h2.459v-23.994h-2.459Z" transform="translate(-575.879 -3181.423)" fill="#fff"/>
        </g>
        <g id="Grupo_730" data-name="Grupo 730" transform="translate(284.985)">
          <path id="Trazado_1049" data-name="Trazado 1049" d="M586.754,3207.948v-27.09l18.5,19.352v-17.626h3.829v26.908l-18.5-19.3v17.758Z" transform="translate(-586.069 -3179.151)" fill="#fff"/>
          <path id="Trazado_1050" data-name="Trazado 1050" d="M610.078,3211.976l-18.5-19.3v16.738h-5.2v-29.482l18.5,19.35v-16.6h5.2Zm-19.867-22.712,18.5,19.3v-24.517h-2.459V3202.7l-18.5-19.35v24.7h2.458Z" transform="translate(-586.382 -3179.931)" fill="#fff"/>
        </g>
        <g id="Grupo_731" data-name="Grupo 731" transform="translate(320.146 2.748)">
          <path id="Trazado_1051" data-name="Trazado 1051" d="M615.506,3185.394v21.766h-3.827v-21.766h-5.832v-3.6h15.475v3.6Z" transform="translate(-605.162 -3181.11)" fill="#fff"/>
          <path id="Trazado_1052" data-name="Trazado 1052" d="M616.5,3208.157h-5.2v-21.765h-5.832v-4.969H622.32v4.969H616.5Zm-3.827-1.37h2.457v-21.766h5.816v-2.228h-14.1v2.228h5.832Z" transform="translate(-605.475 -3181.423)" fill="#fff"/>
        </g>
      </g>
    </g>
    <g id="Grupo_735" data-name="Grupo 735" transform="translate(589.709 3170.927)">
      <path id="Trazado_1053" data-name="Trazado 1053" d="M546.539,3221.044H520.685l-3.215-44.966h31.9Zm-20.751-5.481h15.605l2.144-34h-20.18Z" transform="translate(-517.47 -3166.592)" fill="#f17721"/>
      <g id="Grupo_734" data-name="Grupo 734" transform="translate(0.147)">
        <path id="Trazado_1054" data-name="Trazado 1054" d="M531.615,3190.077l-11.983-18.034H543.6Z" transform="translate(-515.799 -3169.988)" fill="#f17721"/>
        <path id="Trazado_1055" data-name="Trazado 1055" d="M533.365,3194.729l-15.815-23.8h31.635Zm-8.149-19.692,8.149,12.265,8.153-12.265Z" transform="translate(-517.55 -3170.927)" fill="#f17721"/>
      </g>
    </g>
  </g>
</svg>
